<?xml version="1.0" encoding="utf-8"?>
<!-- Generator: Adobe Illustrator 16.0.3, SVG Export Plug-In . SVG Version: 6.00 Build 0)  -->
<!DOCTYPE svg PUBLIC "-//W3C//DTD SVG 1.1//EN" "http://www.w3.org/Graphics/SVG/1.1/DTD/svg11.dtd">
<svg version="1.1" id="Capa_1" xmlns="http://www.w3.org/2000/svg" xmlns:xlink="http://www.w3.org/1999/xlink" x="0px" y="0px"
	 width="164.396px" height="37.441px" viewBox="0 0 164.396 37.441" enable-background="new 0 0 164.396 37.441"
	 xml:space="preserve">
<g>
	<path d="M7.978,23.598c-1.455,0-2.684-0.166-3.691-0.489c-1.021-0.322-1.84-0.781-2.466-1.362
		c-0.634-0.593-1.102-1.289-1.382-2.111C0.146,18.814,0,17.909,0,16.899c0-0.801,0.146-1.528,0.427-2.153
		c0.281-0.645,0.665-1.195,1.144-1.675c0.49-0.477,1.05-0.882,1.694-1.217c0.636-0.332,1.309-0.612,2.018-0.821
		c0.72-0.198,1.448-0.353,2.186-0.446c0.748-0.095,1.465-0.135,2.175-0.135c0.438,0,0.894,0.01,1.382,0.032
		c0.477,0.009,0.956,0.041,1.414,0.07c0.458,0.033,0.885,0.076,1.27,0.105c0.394,0.041,0.727,0.094,0.977,0.125l-0.697,1.821
		c-0.26-0.052-0.613-0.115-1.081-0.167c-0.457-0.062-0.957-0.124-1.476-0.177c-0.531-0.063-1.052-0.104-1.562-0.135
		c-0.519-0.042-0.946-0.063-1.288-0.063c-0.375,0-0.707,0-1.009,0.022c-0.294,0.01-0.562,0.042-0.812,0.082
		c-0.238,0.042-0.469,0.104-0.697,0.179c-0.218,0.072-0.437,0.165-0.667,0.269c-0.571,0.271-0.955,0.78-1.163,1.529
		c-0.209,0.758-0.313,1.696-0.313,2.819c0,1.728,0.395,3.026,1.167,3.911c0.777,0.886,2.017,1.331,3.731,1.331
		c0.969,0,1.987-0.051,3.037-0.167c1.05-0.104,2.008-0.249,2.869-0.445v1.068c-0.479,0.145-0.998,0.281-1.549,0.396
		c-0.551,0.114-1.132,0.22-1.715,0.291c-0.583,0.084-1.174,0.146-1.768,0.188C9.091,23.575,8.53,23.598,7.978,23.598L7.978,23.598z
		 M21.747,23.409h-3.755V10.587h3.755V23.409z M41.237,23.482l-13.051-9.005h-0.043c0.021,0.758,0.053,1.445,0.084,2.08
		c0.009,0.27,0.028,0.542,0.028,0.81c0.012,0.261,0.023,0.51,0.023,0.738c0.009,0.229,0.009,0.428,0.009,0.604v0.375v4.325h-2.194
		V10.503h1.644l13.053,8.955c-0.01-0.675-0.033-1.321-0.041-1.925c0-0.269,0-0.53-0.01-0.791c0-0.257-0.011-0.519-0.022-0.755
		c-0.01-0.242-0.01-0.46-0.01-0.658v-0.49v-4.243h2.217v12.886H41.237z M49.974,23.409v-11.46l-5.762-0.054v-1.309h15.226
		l-0.187,1.268l-5.512,0.095v11.46H49.974z M72.979,23.409H61.871V10.587h10.733l-0.197,1.309l-6.781,0.054v4.17l6.385,0.063
		l-0.166,1.185l-6.219,0.094v4.585l7.53,0.096L72.979,23.409z M76.213,23.409V10.587h3.754v11.481h7.021L86.8,23.409H76.213z
		 M93.531,23.409h-3.755V10.587h3.755V23.409z M113.019,23.482l-13.052-9.005h-0.042c0.022,0.758,0.053,1.445,0.084,2.08
		c0.01,0.27,0.029,0.542,0.029,0.81c0.012,0.261,0.022,0.51,0.031,0.738c0,0.229,0,0.428,0,0.604v0.375v4.325h-2.192V10.503h1.644
		l13.053,8.955c-0.01-0.675-0.032-1.321-0.042-1.925c0-0.269,0-0.53-0.011-0.791c0-0.257-0.012-0.519-0.021-0.755
		c-0.012-0.242-0.012-0.46-0.012-0.658v-0.49v-4.243h2.218v12.886H113.019z M134.008,11.449c-0.333,0-0.667,0.033-0.969,0.094
		c-0.312,0.052-0.632,0.145-0.956,0.28c-0.321,0.137-0.654,0.303-1.021,0.51c-0.364,0.208-0.748,0.459-1.175,0.761
		c-0.456,0.322-0.946,0.675-1.456,1.07c-0.519,0.396-1.071,0.822-1.663,1.279c0.77,1.042,1.518,1.987,2.225,2.849
		c0.708,0.864,1.405,1.603,2.092,2.237c0.686,0.613,1.361,1.111,2.037,1.454c0.667,0.344,1.373,0.521,2.111,0.521h0.23v0.822
		c-0.418,0.074-0.834,0.126-1.25,0.167c-0.425,0.042-0.915,0.063-1.477,0.063c-0.915,0-1.705-0.104-2.38-0.312
		c-0.677-0.197-1.32-0.552-1.945-1.04c-0.612-0.478-1.248-1.125-1.904-1.926c-0.654-0.811-1.404-1.798-2.246-2.984
		c-0.104,0.073-0.219,0.157-0.343,0.27c-0.146,0.104-0.281,0.208-0.426,0.324c-0.148,0.114-0.28,0.217-0.417,0.333
		c-0.125,0.102-0.219,0.187-0.29,0.24v4.949h-3.757V10.587h3.757v6.011c0.363-0.292,0.799-0.645,1.318-1.071
		c0.511-0.427,1.041-0.864,1.582-1.31c0.543-0.448,1.061-0.863,1.561-1.269c0.5-0.396,0.914-0.719,1.25-0.958
		c0.436-0.313,0.83-0.573,1.184-0.759c0.354-0.188,0.697-0.333,1.039-0.428c0.354-0.103,0.709-0.166,1.072-0.186
		c0.362-0.03,0.78-0.041,1.27-0.041c0.187,0,0.426,0,0.685,0.021c0.252,0.01,0.437,0.033,0.531,0.063v0.79H134.008z"/>
	<path fill="#333333" d="M42.35,30.149c-0.229-0.146-0.489-0.259-0.771-0.344c-0.291-0.083-0.569-0.123-0.851-0.123
		c-0.386,0-0.7,0.083-0.936,0.228c-0.241,0.156-0.354,0.385-0.354,0.686c0,0.211,0.062,0.375,0.188,0.511
		c0.134,0.126,0.29,0.239,0.478,0.321c0.187,0.074,0.456,0.166,0.801,0.271c0.416,0.124,0.759,0.238,1.019,0.363
		c0.262,0.126,0.488,0.291,0.676,0.52s0.282,0.531,0.282,0.904c0,0.555-0.206,0.969-0.635,1.26
		c-0.418,0.293-0.936,0.437-1.562,0.437c-0.445,0-0.872-0.071-1.278-0.218c-0.415-0.146-0.759-0.354-1.04-0.624l0.313-0.562
		c0.269,0.241,0.58,0.427,0.936,0.571c0.362,0.136,0.728,0.208,1.102,0.208c0.405,0,0.751-0.082,1.01-0.26
		c0.26-0.166,0.384-0.416,0.384-0.738c0-0.229-0.063-0.416-0.196-0.552c-0.137-0.146-0.292-0.259-0.49-0.345
		c-0.199-0.082-0.478-0.176-0.821-0.279c-0.416-0.125-0.748-0.248-0.997-0.365c-0.262-0.113-0.481-0.279-0.657-0.508
		c-0.176-0.219-0.269-0.51-0.269-0.863c0-0.531,0.194-0.935,0.602-1.206c0.396-0.271,0.897-0.405,1.489-0.405
		c0.352,0,0.684,0.039,1.018,0.134c0.322,0.093,0.613,0.221,0.873,0.386L42.35,30.149z M52.811,29.047
		c0.72,0,1.282,0.207,1.687,0.625c0.404,0.426,0.605,0.997,0.605,1.745v3.743h-0.791v-3.555c0-0.582-0.157-1.031-0.469-1.353
		c-0.313-0.321-0.748-0.487-1.301-0.487c-0.645,0.019-1.153,0.238-1.529,0.674c-0.363,0.439-0.551,1.01-0.551,1.728v2.993h-0.791
		v-3.555c0-0.582-0.155-1.031-0.468-1.353c-0.313-0.321-0.749-0.487-1.299-0.487c-0.646,0.019-1.165,0.238-1.528,0.674
		c-0.377,0.439-0.562,1.01-0.562,1.728v2.993h-0.782v-6.092h0.782v1.436c0.196-0.49,0.499-0.844,0.902-1.082
		c0.396-0.241,0.884-0.365,1.456-0.375c0.584,0,1.061,0.145,1.446,0.427c0.384,0.292,0.634,0.696,0.761,1.218
		c0.188-0.553,0.487-0.957,0.903-1.229C51.698,29.191,52.21,29.057,52.811,29.047L52.811,29.047z M61.622,35.16l-0.013-1.017
		c-0.239,0.353-0.561,0.614-0.944,0.79c-0.385,0.178-0.832,0.259-1.332,0.259c-0.416,0-0.779-0.07-1.092-0.239
		c-0.313-0.154-0.551-0.373-0.728-0.654c-0.167-0.278-0.249-0.593-0.249-0.936c0-0.529,0.196-0.947,0.604-1.249
		c0.405-0.302,0.967-0.458,1.682-0.458h2.051V31.2c0-0.479-0.146-0.854-0.438-1.122c-0.281-0.264-0.708-0.396-1.248-0.396
		c-0.654,0-1.308,0.249-1.965,0.738l-0.354-0.541c0.417-0.283,0.802-0.488,1.177-0.636c0.375-0.135,0.799-0.197,1.277-0.197
		c0.739,0,1.311,0.188,1.708,0.55c0.404,0.365,0.611,0.875,0.621,1.53l0.013,4.033H61.622z M59.47,34.549
		c0.539,0,1-0.125,1.382-0.387c0.376-0.249,0.624-0.602,0.758-1.059v-0.832h-1.964c-0.543,0-0.947,0.082-1.228,0.262
		c-0.269,0.174-0.416,0.445-0.416,0.799c0,0.363,0.134,0.663,0.406,0.885C58.668,34.434,59.031,34.549,59.47,34.549L59.47,34.549z
		 M65.855,30.492c0.206-0.469,0.489-0.82,0.873-1.07c0.375-0.241,0.821-0.365,1.353-0.375v0.729c-0.646,0-1.167,0.187-1.55,0.57
		c-0.396,0.375-0.613,0.905-0.676,1.561v3.254h-0.782v-6.092h0.782V30.492z M73.009,34.746c-0.415,0.281-0.863,0.437-1.34,0.446
		c-0.47,0-0.834-0.134-1.114-0.426c-0.269-0.29-0.404-0.718-0.404-1.289v-3.629h-0.874l-0.01-0.604h0.884v-1.57h0.78v1.57
		l1.974-0.01v0.614h-1.974v3.503c0,0.75,0.278,1.125,0.841,1.125c0.314,0,0.646-0.104,1.009-0.324L73.009,34.746z M80.321,27.143
		c-0.321,0-0.604,0.104-0.82,0.334c-0.219,0.229-0.334,0.52-0.334,0.896v0.862h1.787v0.614h-1.787v5.312h-0.781v-5.312h-0.779
		v-0.614h0.779v-0.771c0-0.405,0.094-0.758,0.26-1.062c0.168-0.312,0.396-0.539,0.686-0.705c0.283-0.167,0.595-0.24,0.926-0.24
		c0.389,0,0.738,0.094,1.074,0.27l-0.198,0.635C80.851,27.215,80.582,27.143,80.321,27.143L80.321,27.143z M87.852,29.068v6.092
		h-0.79v-1.454c-0.21,0.479-0.513,0.843-0.906,1.093c-0.395,0.25-0.882,0.375-1.444,0.384c-0.72,0-1.292-0.206-1.697-0.634
		c-0.404-0.416-0.604-0.999-0.604-1.738v-3.742h0.793v3.559c0,0.57,0.154,1.017,0.466,1.339c0.313,0.323,0.75,0.489,1.291,0.489
		c0.655-0.01,1.167-0.229,1.538-0.666c0.374-0.447,0.563-1.018,0.563-1.736v-2.984H87.852z M93.091,29.047
		c0.948,0,1.676,0.303,2.165,0.905c0.499,0.593,0.728,1.403,0.687,2.423h-5.076c0.053,0.645,0.291,1.175,0.718,1.571
		c0.426,0.404,0.956,0.603,1.582,0.603c0.384,0,0.749-0.072,1.081-0.208c0.332-0.146,0.625-0.346,0.865-0.595l0.435,0.438
		c-0.291,0.322-0.646,0.562-1.061,0.737c-0.418,0.178-0.873,0.261-1.363,0.261c-0.593,0-1.113-0.124-1.569-0.384
		c-0.457-0.261-0.822-0.624-1.081-1.093c-0.263-0.458-0.385-0.999-0.385-1.592s0.122-1.112,0.385-1.59
		c0.259-0.47,0.624-0.832,1.081-1.091C92.01,29.171,92.521,29.047,93.091,29.047L93.091,29.047z M95.244,31.772
		c-0.032-0.646-0.249-1.143-0.634-1.52c-0.384-0.384-0.884-0.57-1.496-0.57c-0.614,0-1.124,0.197-1.541,0.57
		c-0.406,0.386-0.644,0.886-0.707,1.52H95.244z M98.241,26.53h0.78v8.63h-0.78V26.53z M101.964,29.068h0.781v6.092h-0.781V29.068z
		 M102.358,26.77c0.158,0,0.293,0.052,0.387,0.155c0.104,0.104,0.154,0.229,0.154,0.385c0,0.157-0.05,0.293-0.154,0.396
		c-0.106,0.114-0.229,0.166-0.387,0.166c-0.156,0-0.28-0.052-0.385-0.166c-0.102-0.104-0.156-0.239-0.156-0.396
		c0-0.156,0.055-0.28,0.156-0.385C102.078,26.821,102.202,26.77,102.358,26.77L102.358,26.77z M108.808,29.047
		c0.729,0,1.298,0.207,1.717,0.636c0.414,0.415,0.623,0.996,0.623,1.734v3.743h-0.79v-3.555c0-0.572-0.157-1.031-0.479-1.353
		c-0.313-0.321-0.76-0.487-1.321-0.487c-0.634,0.01-1.134,0.207-1.508,0.58c-0.376,0.386-0.593,0.896-0.644,1.54v3.274h-0.781
		v-6.092h0.781v1.424c0.206-0.479,0.519-0.832,0.925-1.07C107.737,29.181,108.226,29.057,108.808,29.047L108.808,29.047z
		 M119.103,29.068v5.449c0,0.594-0.124,1.113-0.374,1.551c-0.249,0.446-0.604,0.779-1.062,1.017
		c-0.458,0.239-0.998,0.356-1.599,0.356c-0.896,0-1.728-0.313-2.499-0.927l0.374-0.563c0.313,0.271,0.637,0.479,0.979,0.614
		c0.332,0.145,0.707,0.207,1.112,0.207c0.698,0,1.259-0.197,1.664-0.602c0.416-0.404,0.625-0.957,0.625-1.634V33.55
		c-0.219,0.429-0.52,0.759-0.926,0.999c-0.406,0.241-0.875,0.354-1.394,0.354c-0.553,0-1.03-0.126-1.456-0.375
		c-0.419-0.249-0.748-0.603-0.99-1.05c-0.228-0.437-0.353-0.944-0.353-1.508c0-0.573,0.125-1.071,0.353-1.517
		c0.242-0.439,0.571-0.781,1.001-1.031c0.427-0.251,0.913-0.375,1.453-0.375c0.522,0,0.991,0.113,1.386,0.354
		s0.707,0.572,0.926,1.008v-1.34H119.103z M116.139,34.278c0.416,0,0.79-0.094,1.124-0.293c0.343-0.196,0.592-0.477,0.779-0.819
		c0.189-0.355,0.282-0.738,0.282-1.176c0-0.447-0.093-0.843-0.282-1.184c-0.188-0.354-0.437-0.625-0.779-0.824
		c-0.334-0.198-0.708-0.3-1.124-0.3c-0.413,0-0.79,0.102-1.124,0.3c-0.331,0.199-0.602,0.471-0.79,0.824
		c-0.187,0.341-0.281,0.736-0.281,1.184c0,0.438,0.095,0.831,0.281,1.176c0.188,0.343,0.447,0.623,0.781,0.819
		C115.339,34.185,115.712,34.278,116.139,34.278L116.139,34.278z"/>
	<path fill-rule="evenodd" clip-rule="evenodd" fill="#18457D" d="M156.617,4.182c0.052,0.082,0.082,0.082,0.082,0.292
		c0,0.216-0.312,0.58-0.581,0.58c-0.271,0-0.406-0.114-0.51-0.29l0,0c-0.104-0.187-0.238-0.354-0.396-0.51
		c-0.446-0.448-1.059-0.719-1.746-0.719c-0.675,0-1.291,0.271-1.738,0.719c-0.156,0.156-0.29,0.324-0.394,0.51l0,0
		c-0.104,0.176-0.24,0.29-0.511,0.29c-0.271,0-0.582-0.363-0.582-0.58c0-0.21,0.032-0.21,0.084-0.292h-0.009
		c0.164-0.283,0.351-0.532,0.58-0.752c0.655-0.664,1.571-1.07,2.569-1.07c1.009,0,1.925,0.406,2.578,1.07
		c0.23,0.22,0.418,0.469,0.584,0.752H156.617z M148.274,3.003L148.274,3.003c-0.052,0.085-0.071,0.076-0.071,0.292
		c0,0.21,0.312,0.583,0.583,0.583c0.26,0,0.393-0.125,0.497-0.291l0,0c0.222-0.364,0.481-0.707,0.771-0.997
		c0.875-0.875,2.082-1.416,3.412-1.416c1.344,0,2.549,0.542,3.421,1.416c0.292,0.291,0.552,0.633,0.771,0.997l0,0
		c0.103,0.167,0.238,0.291,0.499,0.291c0.27,0,0.582-0.373,0.582-0.583c0-0.216-0.021-0.206-0.074-0.292l0,0
		c-0.257-0.457-0.581-0.872-0.954-1.246C156.628,0.676,155.131,0,153.466,0c-1.655,0-3.149,0.676-4.234,1.757
		C148.858,2.131,148.534,2.547,148.274,3.003L148.274,3.003z M141.889,13.737h-0.29h-1.217c-0.977,0-1.954,1.478-1.954,3.288
		c0,1.819,0.978,3.295,1.954,3.295h1.217h0.29l0.137-1.164c-0.615-0.021-1.28-0.945-1.28-2.081c0-1.134,0.665-2.058,1.28-2.08
		L141.889,13.737z M157.365,10.37c4.098,0.977,7.03,3.576,7.03,6.646c0,3.899-4.74,7.06-10.598,7.06c-3.1,0-5.896-0.896-7.832-2.308
		c-0.385,0.613-0.801,1.279-0.944,1.509c-0.303,0.455-0.82,0.279-0.82,0.279l-1.956-0.667l0.757-4.023
		c-0.757-0.343-1.278-1.04-1.278-1.85c0-0.803,0.521-1.5,1.269-1.843l-0.747-4.004l1.956-0.665c0,0,0.518-0.188,0.81,0.281
		c0.145,0.229,0.562,0.884,0.947,1.487c1.059-0.779,2.38-1.404,3.877-1.799v-1.34c0-0.574,0.345-0.927,0.737-1.041
		c0.792-0.24,1.593-0.373,2.384-0.415v-0.49c-0.406-0.208-0.676-0.531-0.676-1.133c0-0.603,0.581-1.289,1.288-1.289
		c0.717,0,1.292,0.687,1.292,1.289c0,0.602-0.272,0.925-0.678,1.133v0.49c0.811,0.049,1.633,0.186,2.445,0.415
		c0.393,0.104,0.737,0.467,0.737,1.041V10.37z M149.421,16.888c0-0.675-0.543-1.215-1.218-1.215c-0.666,0-1.217,0.54-1.217,1.215
		c0,0.667,0.551,1.217,1.217,1.217C148.878,18.105,149.421,17.555,149.421,16.888L149.421,16.888z M151.874,16.888
		c0,0.78,0.635,1.415,1.414,1.415c0.791,0,1.425-0.635,1.425-1.415c0-0.79-0.634-1.425-1.425-1.425
		C152.509,15.463,151.874,16.099,151.874,16.888L151.874,16.888z M157.156,16.888c0,0.884,0.719,1.604,1.604,1.604
		c0.882,0,1.6-0.72,1.6-1.604s-0.718-1.6-1.6-1.6C157.875,15.288,157.156,16.004,157.156,16.888L157.156,16.888z"/>
</g>
</svg>
